PathFileType	4	(X/Y/Z)	SUBJ63_3_walk_RCNL2025.trc
DataRate	CameraRate	NumFrames	NumMarkers	Units	OrigDataRate	OrigDataStartFrame	OrigNumFrames
100	100	10	25	mm	100	115	228
Frame#	Time	R_Shoulder			L_Shoulder			C7			J_Notch			R_Elbow			L_Elbow			R_Wrist			L_Wrist			R_Asis			L_Asis			Sacral			Thoracic			Sternum			R_Thigh_Lateral			R_Knee_Lateral			R_Shank_Lateral			R_Ankle_Lateral			R_Heel			R_Toe			L_Thigh_Lateral			L_Knee_Lateral			L_Shank_Lateral			L_Ankle_Lateral			L_Heel			L_Toe		
		X1	Y1	Z1	X2	Y2	Z2	X3	Y3	Z3	X4	Y4	Z4	X5	Y5	Z5	X6	Y6	Z6	X7	Y7	Z7	X8	Y8	Z8	X9	Y9	Z9	X10	Y10	Z10	X11	Y11	Z11	X12	Y12	Z12	X13	Y13	Z13	X14	Y14	Z14	X15	Y15	Z15	X16	Y16	Z16	X17	Y17	Z17	X18	Y18	Z18	X19	Y19	Z19	X20	Y20	Z20	X21	Y21	Z21	X22	Y22	Z22	X23	Y23	Z23	X24	Y24	Z24	X25	Y25	Z25
115	1.14000000	667.008911	1256.550293	-97.319252	676.447449	1273.219360	-430.419006	590.565552	1327.980591	-267.935944	709.878296	1221.282349	-267.004791	617.091248	978.641357	7.893819	647.407471	978.635010	-532.143127	687.297852	763.012756	48.669282	795.128754	808.888519	-553.437805	729.982849	829.364624	-154.594223	724.739319	802.332825	-403.878601	502.905823	817.798767	-284.921539	504.770233	1149.148804	-276.298035	759.772583	1039.366211	-266.640320	760.524109	495.315033	-99.204178	773.333862	441.605316	-148.460312	779.645325	261.348175	-105.865105	769.283691	54.478863	-188.203003	721.921936	53.749950	-237.130783	884.196106	41.719490	-197.993286	605.735168	438.673920	-505.806427	604.685120	409.455292	-440.600861	459.335388	288.352325	-468.906067	295.580322	187.234100	-388.264984	273.923920	230.531693	-336.107727	333.071625	72.544861	-373.408844
116	1.15000000	684.627930	1258.104614	-96.539978	691.645325	1275.079956	-429.372528	606.731262	1330.162964	-266.446350	725.721924	1223.001343	-266.193695	635.326843	980.101624	8.437991	658.997681	980.593689	-530.769836	706.031372	764.507233	48.479135	801.535706	806.538269	-554.279266	745.723572	831.780945	-153.566589	738.733582	803.660706	-402.844025	517.319824	819.755981	-282.936127	520.383240	1151.625244	-274.424652	774.428345	1040.440430	-266.584320	769.110352	495.580994	-98.197243	780.613770	441.632172	-147.660263	782.680298	261.161163	-105.266693	769.400330	54.621792	-188.387543	722.099060	54.142017	-237.209930	884.256897	41.698574	-198.129166	635.904907	437.893616	-506.406342	634.949585	408.866364	-441.025177	489.171906	290.151031	-469.694275	321.601654	195.056549	-389.766998	300.792023	237.582230	-336.210144	356.597046	79.684044	-379.789642
117	1.16000000	702.200012	1259.961304	-95.996284	706.564026	1277.145874	-428.584656	622.794983	1332.630737	-265.141571	741.392944	1224.988770	-265.670624	653.633179	981.895264	8.850886	670.179321	982.791748	-529.539368	724.977020	766.379822	48.099174	807.171051	804.394073	-555.287903	761.151367	834.299133	-152.775833	752.607483	805.561340	-402.222687	531.488647	822.303284	-280.773376	535.845581	1154.371948	-272.582001	788.719238	1041.722168	-266.854279	776.703186	495.852722	-97.399544	786.727661	441.638611	-147.035721	784.441345	260.962280	-104.810074	769.368286	54.749813	-188.534943	722.137085	54.423859	-237.247086	884.197266	41.842175	-198.184052	665.891357	438.419159	-506.635101	665.310242	409.529572	-441.121887	519.879089	292.204468	-470.060791	349.852417	201.126923	-390.869934	329.125763	242.238647	-335.801514	384.359985	86.088379	-386.012817
118	1.17000000	719.683899	1262.112793	-95.672905	721.173401	1279.390991	-428.062347	638.729309	1335.333374	-264.015900	756.888672	1227.238159	-265.427582	672.007568	984.015503	9.144958	680.942810	985.200623	-528.453735	744.119019	768.615967	47.526836	812.107330	802.538147	-556.457123	776.258972	836.814636	-152.192123	766.425049	808.040039	-401.979401	545.479492	825.334656	-278.500061	551.166931	1157.321167	-270.753021	802.796265	1043.277466	-267.402283	783.541382	496.166809	-96.828751	791.914246	441.674347	-146.605576	785.513977	260.784454	-104.502815	769.256470	54.861858	-188.650970	722.072693	54.629105	-237.230667	884.080994	42.048576	-198.190079	695.351196	440.277130	-506.524323	695.504333	411.470886	-440.953949	551.153625	294.596771	-470.097595	380.120758	205.138840	-391.624695	358.729614	244.398071	-335.118683	416.022552	91.328087	-391.585449
119	1.18000000	737.042908	1264.539429	-95.551353	735.456665	1281.779663	-427.794861	654.505188	1338.201782	-263.062897	772.212585	1229.720337	-265.444244	690.440063	986.442932	9.337619	691.282898	987.784424	-527.503723	763.442535	771.189606	46.768110	816.424530	801.032867	-557.786285	791.085754	839.239807	-151.741257	780.236328	811.067322	-402.027466	559.363403	828.717407	-276.203369	566.363586	1160.388550	-268.929840	816.832520	1045.159546	-268.154205	789.852844	496.549866	-96.485329	796.412964	441.778748	-146.370193	786.389954	260.659912	-104.341270	769.116882	54.965424	-188.742355	721.937256	54.784592	-237.159576	883.953308	42.256142	-198.174011	724.093628	443.340149	-506.123047	725.320557	414.599670	-440.569550	582.744324	297.326172	-469.891602	412.166046	206.914047	-392.074585	389.447693	244.082092	-334.362579	451.097839	95.091866	-396.108704
120	1.19000000	754.247742	1267.204468	-95.611549	749.404968	1284.263916	-427.759705	670.096558	1341.151001	-262.274567	787.372864	1232.383789	-265.692230	708.916199	989.138855	9.450138	701.198730	990.495605	-526.669312	782.935394	774.059814	45.839507	820.206238	799.912048	-559.279724	805.685852	841.503479	-151.332016	794.077698	814.577881	-402.241119	573.207336	832.304749	-273.980103	581.456238	1163.478027	-267.110535	830.967590	1047.390991	-269.035156	795.833801	497.008514	-96.351761	800.444092	441.967987	-146.310867	787.378845	260.607422	-104.311951	768.986694	55.073448	-188.816452	721.758911	54.913990	-237.040543	883.843262	42.432636	-198.155441	752.041382	447.388916	-505.489349	754.592896	418.741455	-440.004761	614.446411	300.295410	-469.506378	445.753235	206.403763	-392.245056	421.175995	241.401413	-333.660889	489.042358	97.213074	-399.333923
121	1.20000000	771.278015	1270.052856	-95.831245	763.014587	1286.783203	-427.927155	685.485413	1344.085327	-261.640228	802.382507	1235.158081	-266.140839	727.419861	992.040710	9.507830	710.697266	993.272278	-525.924377	802.588196	777.168304	44.768417	823.535950	799.175598	-560.944000	820.108459	843.548096	-150.881348	807.974365	818.471863	-402.475311	587.066650	835.945374	-271.925598	596.466309	1166.489136	-265.294922	845.263367	1049.950562	-269.992126	801.638794	497.527740	-96.396156	804.188538	442.231567	-146.395538	788.593872	260.629364	-104.394012	768.891602	55.201874	-188.882004	721.568298	55.041626	-236.893433	883.767090	42.564838	-198.145264	779.179688	452.163971	-504.680389	783.191895	423.669800	-439.288086	646.097290	303.327759	-468.979858	480.680939	203.674805	-392.141296	453.865692	236.521286	-333.057129	529.329834	97.677322	-401.183014
122	1.21000000	788.122192	1273.010620	-96.184700	776.287170	1289.265015	-428.263306	700.666443	1346.904541	-261.145416	817.259949	1237.957275	-266.762054	745.933594	995.063293	9.541469	719.798096	996.039734	-525.243347	822.393188	780.438934	43.590505	826.495483	798.790955	-562.784760	834.388184	845.325562	-150.332703	821.943909	822.616943	-402.589844	600.981812	839.491760	-270.124298	611.413330	1169.324951	-263.480743	859.697632	1052.774292	-271.002197	807.371399	498.076050	-96.577766	807.772705	442.542816	-146.584976	790.002625	260.717102	-104.563202	768.846802	55.364445	-188.949982	721.406189	55.191971	-236.758423	883.731262	42.650524	-198.145859	805.526001	457.391266	-503.744751	811.018066	429.132233	-438.441589	677.579041	306.189819	-468.331085	516.796692	198.887283	-391.752106	487.519867	229.634201	-332.517975	571.496277	96.608017	-401.738525
123	1.22000000	804.776978	1275.989014	-96.642998	789.233154	1291.626587	-428.731750	715.648621	1349.511353	-260.770660	832.026245	1240.685913	-267.531616	764.438843	998.104858	9.587057	728.535095	998.715820	-524.604492	842.342682	783.781189	42.345052	829.162689	798.699066	-564.803772	848.540894	846.793030	-149.664169	836.000305	826.853333	-402.471619	614.979248	842.808289	-268.643005	626.314209	1171.897217	-261.662720	874.200989	1055.765991	-272.061981	813.077148	498.616119	-96.851318	811.265381	442.873810	-146.836670	791.504822	260.860840	-104.795067	768.855408	55.565304	-189.035217	721.326721	55.385624	-236.696182	883.737183	42.693195	-198.153030	831.120056	462.803619	-502.718842	837.996704	434.871063	-437.479736	708.825378	308.613007	-467.565094	553.998962	192.268570	-391.059326	522.186157	220.942368	-331.954987	615.157715	94.231682	-401.209351
124	1.23000000	821.246155	1278.888428	-97.176193	801.874207	1293.780518	-429.295197	730.452698	1351.819214	-260.491364	846.702209	1243.245361	-268.426453	782.919922	1001.056580	9.681154	736.954895	1001.218262	-523.991699	862.428955	787.097015	41.071075	831.607086	798.821899	-566.996918	862.563110	847.909607	-148.884735	850.157898	831.004211	-402.049103	629.073730	845.780579	-267.528015	641.182800	1174.130615	-259.834351	888.710510	1058.809937	-273.168915	818.750305	499.118103	-97.170128	814.691284	443.204773	-147.108124	792.999756	261.057922	-105.067192	768.910583	55.798679	-189.157043	721.388245	55.638466	-236.775589	883.785034	42.699089	-198.158890	856.013367	468.169098	-501.626282	864.072266	440.638763	-436.408203	739.824829	310.318542	-466.672577	592.229431	184.089188	-390.050293	557.947083	210.651459	-331.253876	660.006714	90.835487	-399.885193
